<svg width="18" height="17" viewBox="0 0 18 17" fill="none" xmlns="http://www.w3.org/2000/svg">
<path d="M16.75 0.383928C16.6607 0.321428 16.5446 0.285713 16.4286 0.285713C16.3304 0.285713 16.2321 0.312499 16.1429 0.366071L1.28571 8.9375C1.09821 9.04464 0.991071 9.25 1 9.46429C1.01786 9.6875 1.15179 9.875 1.35714 9.95536L4.88393 11.4018L14.4286 3.14286L6.71429 12.5982V15.7143C6.71429 15.9554 6.86607 16.1696 7.08929 16.25C7.15179 16.2768 7.22321 16.2857 7.28571 16.2857C7.45536 16.2857 7.61607 16.2143 7.72321 16.0804L9.88393 13.4464L13.9286 15.0982C14 15.125 14.0714 15.1429 14.1429 15.1429C14.2411 15.1429 14.3393 15.1161 14.4196 15.0714C14.5714 14.9821 14.6786 14.8393 14.7054 14.6696L16.9911 0.955357C17.0268 0.732142 16.9375 0.517857 16.75 0.383928Z" fill="white"/>
</svg>
