<svg width="14" height="15" viewBox="0 0 14 15" fill="none" xmlns="http://www.w3.org/2000/svg">
<path d="M13.2835 7.85714C13.2835 7.55357 13.1674 7.25893 12.9531 7.05357L7.14063 1.24107C6.92634 1.02678 6.6317 0.901785 6.32813 0.901785C6.02455 0.901785 5.73884 1.02678 5.52455 1.24107L4.85491 1.91071C4.64062 2.11607 4.51562 2.41071 4.51562 2.71428C4.51562 3.01786 4.64062 3.3125 4.85491 3.51786L7.47098 6.14286H1.18527C0.542411 6.14286 0.140625 6.67857 0.140625 7.28571V8.42857C0.140625 9.03571 0.542411 9.57143 1.18527 9.57143H7.47098L4.85491 12.1875C4.64062 12.4018 4.51562 12.6964 4.51562 13C4.51562 13.3036 4.64062 13.5982 4.85491 13.8125L5.52455 14.4821C5.73884 14.6875 6.02455 14.8125 6.32813 14.8125C6.6317 14.8125 6.92634 14.6875 7.14063 14.4821L12.9531 8.66964C13.1674 8.45536 13.2835 8.16071 13.2835 7.85714Z" fill="#B4B4B4"/>
</svg>
