<svg width="50" height="50" viewBox="0 0 50 50" fill="none" xmlns="http://www.w3.org/2000/svg">
<g clip-path="url(#clip0_2_735)">
<path d="M24.9997 49.9994C38.8067 49.9994 49.9994 38.8067 49.9994 24.9997C49.9994 11.1927 38.8067 0 24.9997 0C11.1927 0 0 11.1927 0 24.9997C0 38.8067 11.1927 49.9994 24.9997 49.9994Z" fill="#41B4E6"/>
<path d="M22.5721 28.6423L33.87 37.1723L39.5731 12.8279L10.4269 24.2926L19.2957 27.2302L35.4816 16.3732L22.5721 28.6423Z" fill="white"/>
<path d="M19.2957 27.2301L21.7247 35.9707L22.572 28.6422L35.4815 16.373L19.2957 27.2301Z" fill="#D2D2D7"/>
<path d="M26.244 31.4146L21.7247 35.9709L22.5721 28.6423L26.244 31.4146Z" fill="#B9B9BE"/>
</g>
<defs>
<clipPath id="clip0_2_735">
<rect width="50" height="50" fill="white" transform="translate(0 -0.000244141)"/>
</clipPath>
</defs>
</svg>
